<svg xmlns="http://www.w3.org/2000/svg" width="84" height="20" fill="none" viewBox="0 0 84 20">
    <path fill="#fff" d="M6.264 10.704c-.688-.192-1.336-.408-1.944-.648-.608-.24-1.144-.536-1.608-.888-.448-.368-.808-.8-1.08-1.296C1.376 7.36 1.248 6.736 1.248 6c0-.816.16-1.496.48-2.04.336-.56.768-1.008 1.296-1.344.528-.336 1.112-.576 1.752-.72.656-.144 1.304-.216 1.944-.216 1.2 0 2.224.096 3.072.288.864.192 1.672.44 2.424.744l-.48 2.064c-.944-.368-1.816-.64-2.616-.816-.784-.192-1.632-.288-2.544-.288-.272 0-.576.032-.912.096-.32.048-.616.152-.888.312-.272.144-.504.352-.696.624-.176.256-.264.592-.264 1.008 0 .368.064.688.192.96.144.256.352.48.624.672.272.192.608.368 1.008.528.416.16.904.328 1.464.504 1.072.336 1.96.688 2.664 1.056.704.368 1.264.76 1.68 1.176.416.416.704.872.864 1.368.16.48.24 1 .24 1.56 0 .928-.184 1.696-.552 2.304-.368.592-.84 1.072-1.416 1.44-.576.352-1.208.6-1.896.744-.688.144-1.352.216-1.992.216-1.2 0-2.256-.112-3.168-.336-.912-.224-1.752-.496-2.52-.816l.312-2.016c.96.368 1.864.656 2.712.864.864.208 1.752.312 2.664.312 1.104 0 1.92-.208 2.448-.624.544-.432.816-1.032.816-1.8 0-.416-.08-.776-.24-1.08-.144-.32-.376-.6-.696-.84-.304-.24-.688-.456-1.152-.648-.464-.192-1-.376-1.608-.552zM17.482 18h-2.424V1.92h2.424V18zm5.39-12.216V18H20.45V1.92H23.4l7.968 12.336V1.92h2.424V18H30.84L22.873 5.784zm25.985.432c0 .688-.168 1.344-.504 1.968-.32.624-.84 1.12-1.56 1.488.912.352 1.568.888 1.968 1.608.416.704.624 1.456.624 2.256 0 .608-.104 1.184-.312 1.728-.208.544-.528 1.024-.96 1.44-.416.4-.944.72-1.584.96-.64.224-1.384.336-2.232.336h-7.536V1.92h7.008c.848 0 1.592.112 2.232.336.64.208 1.168.504 1.584.888.432.384.752.84.96 1.368.208.528.312 1.096.312 1.704zm-9.672 4.608v5.136h4.632c.448 0 .856-.04 1.224-.12.384-.096.712-.248.984-.456.288-.208.512-.472.672-.792.16-.336.24-.736.24-1.2 0-.48-.08-.88-.24-1.2-.16-.32-.376-.584-.648-.792-.272-.208-.6-.352-.984-.432-.368-.096-.776-.144-1.224-.144h-4.656zm4.104-2.04c.448 0 .856-.032 1.224-.096.384-.08.712-.208.984-.384.288-.192.512-.44.672-.744.16-.32.24-.72.24-1.2 0-.464-.08-.848-.24-1.152-.16-.32-.384-.568-.672-.744-.272-.192-.6-.32-.984-.384-.368-.08-.776-.12-1.224-.12h-4.104v4.824h4.104zM54.303 18h-2.424V1.92h2.424V18zM68.519 16.472c-1.204.259-2.217.43-2.951.541-1.755.266-2.558.285-3.424.141-.764-.125-1.695-.292-1.967-.935-.168-.416 0-.882.187-1.347.205-.525.51-1.005.898-1.414.68-.755 1.426-1.447 2.23-2.069.584-.433 1.174-.865 1.895-1.357l.328-.227s.597-.4 1.217-.783c1.144-.709 3.144-1.768 3.83-2.128 1.056-.558 1.597-.843 2.2-1.132 1.41-.656 2.315-1.016 2.548-1.105.656-.278 1.335-.497 2.03-.656.983-.187 2.088-.39 3.18.168.132.068 1.456.767 1.748 2.111.07.407.07.823 0 1.23-.078.66-.25 1.305-.511 1.915-.21.551-.464 1.085-.758 1.597.403-.502.77-1.032 1.096-1.587.544-.876.855-1.423 1.023-2.187.075-.328.459-1.938-.443-3.335-.308-.463-.709-.856-1.177-1.154-.477-.29-1.004-.489-1.555-.584-.765-.168-1.551-.215-2.331-.141-1.587.131-2.755.623-4.04 1.177-.617.266-.43.22-2.909 1.413-1.193.574-1.052.505-1.708.81-1.167.574-2.266 1.109-3.571 1.88-.922.544-1.528.957-1.984 1.285-.38.272-.656.495-.836.63-.958.747-1.64 1.386-1.918 1.639-.55.47-1.055.99-1.509 1.554-.472.523-.837 1.134-1.075 1.797-.151.472-.453 1.427-.07 2.237.722 1.521 3.401 1.537 4.31 1.54.906-.01 1.808-.139 2.682-.38 1.147-.268 2.264-.652 3.335-1.144z"/>
    <path fill="#fff" d="M72.949 16.472c1.203.259 2.217.43 2.951.541 1.755.266 2.561.285 3.427.141.76-.125 1.695-.292 1.967-.935.17-.416 0-.882-.186-1.347-.206-.525-.511-1.005-.899-1.414-.68-.755-1.426-1.447-2.23-2.069-.584-.433-1.174-.865-1.892-1.357l-.328-.227s-.593-.4-1.216-.783c-1.161-.709-3.161-1.774-3.847-2.128-1.056-.558-1.597-.843-2.2-1.132-1.41-.656-2.315-1.016-2.545-1.105-.657-.278-1.337-.498-2.033-.656-1-.187-2.085-.39-3.18.168-.132.072-1.456.783-1.748 2.115-.07.407-.07.822 0 1.23.08.659.251 1.303.511 1.914.212.551.465 1.085.758 1.597-.403-.502-.77-1.032-1.096-1.587-.53-.879-.83-1.426-1.013-2.19-.075-.328-.472-1.938.443-3.335.308-.463.709-.856 1.177-1.154.477-.29 1.004-.489 1.554-.584.766-.168 1.552-.215 2.332-.141 1.59.131 2.764.623 4.04 1.177.616.266.43.22 2.908 1.413 1.194.574 1.07.505 1.699.81 1.17.574 2.27 1.109 3.571 1.88.921.544 1.528.957 1.968 1.285.38.272.655.495.839.63.954.747 1.64 1.386 1.915 1.639.55.47 1.056.99 1.512 1.554.474.524.841 1.136 1.082 1.8.15.473.456 1.427.069 2.237-.722 1.521-3.4 1.538-4.306 1.541-.907-.011-1.808-.139-2.682-.38-1.143-.271-2.256-.656-3.322-1.148z"/>
    <path fill="#fff" d="M76.543 11.201c1.182 0 2.14-.958 2.14-2.14 0-1.183-.958-2.141-2.14-2.141-1.183 0-2.141.958-2.141 2.14 0 1.183.958 2.141 2.14 2.141z"/>
</svg>
